<svg xmlns="http://www.w3.org/2000/svg" viewBox="0 0 363.69 94.61"><defs><style>.cls-1{fill:#a0a0a0;}.cls-2{fill:#f2f2f4;}</style></defs><g id="Слой_2" data-name="Слой 2"><g id="Слой_1-2" data-name="Слой 1"><path class="cls-1" d="M10.85,11.87a7.11,7.11,0,0,0-.43-1.19A4.48,4.48,0,0,0,9.7,9.59a3.28,3.28,0,0,0-1-.8,2.87,2.87,0,0,0-1.38-.31,4,4,0,0,0-1.82.41A4.31,4.31,0,0,0,4.13,10a5.16,5.16,0,0,0-.85,1.65,6.74,6.74,0,0,0-.29,2,9.59,9.59,0,0,0,.37,2.71A7.31,7.31,0,0,0,4.42,18.6a5.08,5.08,0,0,0,1.64,1.53,4.1,4.1,0,0,0,2.14.57A4.54,4.54,0,0,0,10,20.37a4.25,4.25,0,0,0,1.33-.89,5.49,5.49,0,0,0,1-1.29,13.88,13.88,0,0,0,.73-1.56L14,17a10.63,10.63,0,0,1-1,2.52,7.5,7.5,0,0,1-1.52,1.88,6,6,0,0,1-2,1.18,7,7,0,0,1-2.36.4,6.61,6.61,0,0,1-2.77-.58A7,7,0,0,1,2.07,20.8,7.65,7.65,0,0,1,0,15.56a8.25,8.25,0,0,1,.28-2.18,8.23,8.23,0,0,1,2-3.61A8,8,0,0,1,3.85,8.49a7.77,7.77,0,0,1,1.86-.83,7.31,7.31,0,0,1,2.05-.29,7.43,7.43,0,0,1,1.72.2A6.66,6.66,0,0,1,11,8.15a5,5,0,0,1,1.21.92A4.14,4.14,0,0,1,13,10.3Z"/><path class="cls-1" d="M20.29,7.37h.45l.4,3.06A5.32,5.32,0,0,1,22,9.2a6.71,6.71,0,0,1,1.16-1,5.72,5.72,0,0,1,1.35-.63A4.43,4.43,0,0,1,26,7.37a5.21,5.21,0,0,1,1.3.17,4.18,4.18,0,0,1,1.19.56l-.94,2.51a2.64,2.64,0,0,0-.61-.52,2.81,2.81,0,0,0-.66-.31,2.64,2.64,0,0,0-.69-.14c-.23,0-.47,0-.7,0a3.64,3.64,0,0,0-1.09.16,4,4,0,0,0-1,.48,4.16,4.16,0,0,0-.89.8,4.88,4.88,0,0,0-.72,1.15V22.65h-3V8.19Z"/><path class="cls-1" d="M37.47,23a7.35,7.35,0,0,1-6.77-4.43,7,7,0,0,1-.58-2.82,10.2,10.2,0,0,1,.52-3.33,7.89,7.89,0,0,1,1.5-2.65A6.88,6.88,0,0,1,34.46,8a7.08,7.08,0,0,1,3-.63,6.79,6.79,0,0,1,2.69.52A6.61,6.61,0,0,1,42.3,9.28a6.14,6.14,0,0,1,1.37,2,6,6,0,0,1,.5,2.39H33a9.62,9.62,0,0,0,.39,2.8,6.92,6.92,0,0,0,1.09,2.23,5.16,5.16,0,0,0,1.67,1.46,4.36,4.36,0,0,0,2.12.53,5.51,5.51,0,0,0,1.86-.32,6.49,6.49,0,0,0,1.62-.82A6.07,6.07,0,0,0,43,18.38,4.17,4.17,0,0,0,43.7,17l.86.38a6.79,6.79,0,0,1-1,2.17,8.82,8.82,0,0,1-1.68,1.77,8.12,8.12,0,0,1-2.08,1.19A6.38,6.38,0,0,1,37.47,23Zm3-10.49a4.12,4.12,0,0,0-.3-1.58,3.94,3.94,0,0,0-.83-1.27,3.74,3.74,0,0,0-1.23-.84,3.64,3.64,0,0,0-1.51-.31,2.91,2.91,0,0,0-1.29.3,3.67,3.67,0,0,0-1.1.84,4.57,4.57,0,0,0-.79,1.26A4.88,4.88,0,0,0,33,12.47Z"/><path class="cls-1" d="M58.12,22.65a2.71,2.71,0,0,1-1-.83,2,2,0,0,1-.41-1.22c-.35.26-.69.53-1,.82a8,8,0,0,1-1.1.77,6.63,6.63,0,0,1-1.32.56,5.63,5.63,0,0,1-1.67.22A4.21,4.21,0,0,1,50,22.68a3.37,3.37,0,0,1-1.2-.78,3.44,3.44,0,0,1-.77-1.19,4,4,0,0,1-.27-1.48,4,4,0,0,1,.38-1.74,4.68,4.68,0,0,1,1.05-1.38A7.79,7.79,0,0,1,50.76,15a14.54,14.54,0,0,1,1.87-.85c.67-.25,1.35-.47,2-.66l2-.55V12a9.29,9.29,0,0,0-.14-1.73,3,3,0,0,0-.46-1.14,1.61,1.61,0,0,0-.78-.61,3.24,3.24,0,0,0-1.14-.19,2.73,2.73,0,0,0-1.15.25,3.11,3.11,0,0,0-.93.67,3.52,3.52,0,0,0-.66,1,4.48,4.48,0,0,0-.35,1.2H48.4a3.69,3.69,0,0,1,.66-1.73,4.91,4.91,0,0,1,1.39-1.29,6.91,6.91,0,0,1,1.9-.79,8.4,8.4,0,0,1,2.2-.28A9.05,9.05,0,0,1,57,7.65a4.21,4.21,0,0,1,1.6.8,2.83,2.83,0,0,1,.85,1.25,4.78,4.78,0,0,1,.26,1.64V20.6a2,2,0,0,0,.4,1.22,2.82,2.82,0,0,0,1,.83Zm-1.39-8.73c-.43.13-.87.29-1.33.46s-.91.38-1.35.6a12.81,12.81,0,0,0-1.26.71,6.37,6.37,0,0,0-1,.82,4,4,0,0,0-.72.92,2,2,0,0,0-.26,1,2.84,2.84,0,0,0,.2,1,3.14,3.14,0,0,0,.54.86,2.6,2.6,0,0,0,.78.59,2.09,2.09,0,0,0,.91.21,3.3,3.3,0,0,0,1-.13,4.79,4.79,0,0,0,.88-.36,7.76,7.76,0,0,0,.85-.52c.28-.19.57-.4.86-.63Z"/><path class="cls-1" d="M67.69,2.55h.85v5.1h3.34V8.92H68.54V19.48a1.61,1.61,0,0,0,.12.63,1.69,1.69,0,0,0,.34.51,1.41,1.41,0,0,0,.51.35,1.66,1.66,0,0,0,.64.12,1.68,1.68,0,0,0,.91-.25,3,3,0,0,0,.72-.61l.74.5a4.72,4.72,0,0,1-1.59,1.64,4.61,4.61,0,0,1-2.43.6,3.12,3.12,0,0,1-1.31-.26,2.39,2.39,0,0,1-.91-.72,3.09,3.09,0,0,1-.54-1.09,5.27,5.27,0,0,1-.17-1.42V8.92H63V8.36l2.61-.71V3.38Z"/><path class="cls-1" d="M82.79,23a7.23,7.23,0,0,1-2.86-.57,7.49,7.49,0,0,1-2.34-1.56A7.23,7.23,0,0,1,76,18.54a7,7,0,0,1-.58-2.82A10.2,10.2,0,0,1,76,12.39a7.87,7.87,0,0,1,1.49-2.65A7,7,0,0,1,79.78,8a7.11,7.11,0,0,1,3-.63,6.79,6.79,0,0,1,2.69.52,6.61,6.61,0,0,1,2.12,1.39,6.33,6.33,0,0,1,1.38,2,6.16,6.16,0,0,1,.49,2.39H78.31a9.62,9.62,0,0,0,.39,2.8,7.14,7.14,0,0,0,1.09,2.23,5.26,5.26,0,0,0,1.67,1.46,4.36,4.36,0,0,0,2.12.53,5.51,5.51,0,0,0,1.86-.32,6.49,6.49,0,0,0,1.62-.82,5.82,5.82,0,0,0,1.24-1.18A4.17,4.17,0,0,0,89,17l.86.38a6.79,6.79,0,0,1-1,2.17,9.06,9.06,0,0,1-1.67,1.77,8.18,8.18,0,0,1-2.09,1.19A6.33,6.33,0,0,1,82.79,23Zm3-10.49a4.12,4.12,0,0,0-.3-1.58,3.78,3.78,0,0,0-.83-1.27,3.74,3.74,0,0,0-1.23-.84,3.64,3.64,0,0,0-1.51-.31,2.9,2.9,0,0,0-1.28.3,3.55,3.55,0,0,0-1.1.84,4.37,4.37,0,0,0-.8,1.26,4.63,4.63,0,0,0-.37,1.59Z"/><path class="cls-1" d="M104.4,21.2A7.69,7.69,0,0,1,102,22.49a8.74,8.74,0,0,1-1.31.35,6.42,6.42,0,0,1-1.29.13A5.17,5.17,0,0,1,97,22.35a6.71,6.71,0,0,1-2-1.65,8.31,8.31,0,0,1-1.36-2.43,8.57,8.57,0,0,1-.49-2.92,7.31,7.31,0,0,1,.62-3,8.59,8.59,0,0,1,1.69-2.55A8.19,8.19,0,0,1,97.92,8a7,7,0,0,1,3-.67,4.52,4.52,0,0,1,1.91.38,6.19,6.19,0,0,1,1.52,1V.85L106.49,0h.87V22.65h-3Zm0-8.78a3.82,3.82,0,0,0-.33-1.6,4.15,4.15,0,0,0-.86-1.25,4,4,0,0,0-1.19-.8,3.41,3.41,0,0,0-1.34-.29A3.36,3.36,0,0,0,99,8.92a4.31,4.31,0,0,0-1.36,1.24,6.45,6.45,0,0,0-.91,1.9,8.18,8.18,0,0,0-.34,2.44,9.24,9.24,0,0,0,.37,2.68,7.67,7.67,0,0,0,1,2.18,5,5,0,0,0,1.49,1.46,3.45,3.45,0,0,0,2.79.41,4.38,4.38,0,0,0,.9-.33,7.12,7.12,0,0,0,.8-.49,5.38,5.38,0,0,0,.65-.59Z"/><path class="cls-1" d="M118.75.83,120.86,0h.88V10.47a5.88,5.88,0,0,1,1-1.2,7.63,7.63,0,0,1,1.29-1,7.54,7.54,0,0,1,1.45-.66,4.5,4.5,0,0,1,1.44-.25,5.42,5.42,0,0,1,2.41.53,5.91,5.91,0,0,1,1.89,1.43,6.74,6.74,0,0,1,1.23,2.12,7.33,7.33,0,0,1,.45,2.58,9.38,9.38,0,0,1-.65,3.49,9,9,0,0,1-1.79,2.83,8.35,8.35,0,0,1-2.66,1.92,7.78,7.78,0,0,1-3.25.7,11,11,0,0,1-3.14-.44,8,8,0,0,1-2.62-1.33Zm3,19.37c.19.18.39.36.61.54a4.4,4.4,0,0,0,.74.51,4,4,0,0,0,.92.36,3.93,3.93,0,0,0,1.13.14,3.71,3.71,0,0,0,1.89-.5,4.66,4.66,0,0,0,1.46-1.41,7.11,7.11,0,0,0,.94-2.14,10.4,10.4,0,0,0,.33-2.7,6.24,6.24,0,0,0-.35-2.09,5.6,5.6,0,0,0-.94-1.7,4.47,4.47,0,0,0-1.39-1.14,3.6,3.6,0,0,0-1.7-.42,3.81,3.81,0,0,0-1,.15,5,5,0,0,0-1,.4,4.82,4.82,0,0,0-.89.57,3.48,3.48,0,0,0-.68.71Z"/><path class="cls-1" d="M136.58,26.19a3.44,3.44,0,0,1,.39.19,3.86,3.86,0,0,0,1,.41,3,3,0,0,0,.69.08,1.57,1.57,0,0,0,.88-.27,3.29,3.29,0,0,0,.75-.66,6,6,0,0,0,.6-.86c.17-.31.32-.61.44-.88l1-2.26L134.71,7.65h3.38l5.77,10.84,4.73-10.84h1.6l-7.66,17.63a8.72,8.72,0,0,1-1.11,1.91,6.93,6.93,0,0,1-1.32,1.33,5.26,5.26,0,0,1-1.45.78,4.24,4.24,0,0,1-1.45.26,3.26,3.26,0,0,1-1-.16,2.6,2.6,0,0,1-.83-.43Z"/><path class="cls-2" d="M309.12,65.3V94.19h-8.19V64.9a10,10,0,0,0-.59-3.45,8.75,8.75,0,0,0-.42-1,9.15,9.15,0,0,0-1.19-1.89,7.65,7.65,0,0,0-2.34-1.95,6,6,0,0,0-2.85-.73,10,10,0,0,0-3.23.5,17.58,17.58,0,0,0-3.26,1.33,16.88,16.88,0,0,0-3,2A12.15,12.15,0,0,0,282,61.8V94.19h-8.17q0-29.82,0-59.62V32l5.87-2.39H282v5q0,10.92,0,21.84a32.06,32.06,0,0,1,3.1-2.48,22.16,22.16,0,0,1,3.82-2.29,21.06,21.06,0,0,1,7.64-1.53h1a10.62,10.62,0,0,1,2.36.3,11.49,11.49,0,0,1,1.31.4,12.55,12.55,0,0,1,6.16,4.83,9.22,9.22,0,0,1,1.07,2.09,9.46,9.46,0,0,1,.42,1.55C309,61.29,309.06,63.3,309.12,65.3Z"/><path class="cls-2" d="M103.77,86.19l0,4.3c-.39.25-.78.46-1.17.67-1,.61-2.08,1.16-3.07,1.61h0l-.76.34A13.49,13.49,0,0,1,93,94.19h-.16c-3.28,0-5.59-1.3-6.93-3.71a12.82,12.82,0,0,1-.89-2s0,0,0,0a24.2,24.2,0,0,1-1.1-7.12c0-.33,0-.66,0-1v-.21c0-.27,0-.55,0-.83Q83.7,67,83.94,55.1l-6.77,0V53.72L83.8,51.9,84,39.06l5.68-2.23h2.08q.09,7.56.19,15.1l9.14,0v3.2l-9.39,0-.1,22.38h0c0,.67,0,1.3.09,1.87a14.73,14.73,0,0,0,.86,4.24,5.21,5.21,0,0,0,1.92,2.58,3.78,3.78,0,0,0,.59.34,6.62,6.62,0,0,0,2.91.56,21.27,21.27,0,0,0,3-.24c.44-.05.84-.12,1.19-.19A6.52,6.52,0,0,0,103.77,86.19Z"/><path class="cls-2" d="M270.76,94.19l-10.74,0L244.07,75q0,9.63-.08,19.24H236.1V32.1L242,29.59h2.33q0,12.56,0,25.12,0,9.95,0,19.88l12.1-20.89,7.7-2.35h.5l-12,20.86,0,0,0,0Z"/><polygon class="cls-2" points="244.28 29.59 244.28 29.6 242.34 29.59 244.28 29.59"/><path class="cls-2" d="M228.28,90.49c.11-.12.22-.23.31-.34l-.29.34Z"/><path class="cls-2" d="M36.46,93.37a10,10,0,0,1-1.33-.91,6.85,6.85,0,0,1-.84-.8,6.41,6.41,0,0,1-.53-.65,5.74,5.74,0,0,1-1.08-3.46l.11-26.16a14,14,0,0,0-.68-4.61,8,8,0,0,0-2.33-3.56A11.65,11.65,0,0,0,25.42,51a24.28,24.28,0,0,0-6.73-.84,23.23,23.23,0,0,0-6.05.77,17.58,17.58,0,0,0-5.2,2.23A13.65,13.65,0,0,0,3.62,56.7a10.69,10.69,0,0,0-1.83,4.87l7.45,0a13,13,0,0,1,1-3.37A9.81,9.81,0,0,1,12,55.48a8.71,8.71,0,0,1,2.55-1.87,7.22,7.22,0,0,1,3.18-.69,6.26,6.26,0,0,1,3.11.55A5.63,5.63,0,0,1,23.45,56C25,59.34,21.74,64.57,19,66.53a20.63,20.63,0,0,1-3,1.74,26.37,26.37,0,0,1-2.62,1A41.79,41.79,0,0,0,8.2,71.7a22.77,22.77,0,0,0-4.26,3,13.08,13.08,0,0,0-2.87,3.9A11.29,11.29,0,0,0,0,83.57a11.47,11.47,0,0,0,.73,4.17,10,10,0,0,0,2.06,3.37,9.56,9.56,0,0,0,3.29,2.22A9.67,9.67,0,0,0,9,94.07a11.43,11.43,0,0,0,1.45.08c.65,0,1.28,0,1.87-.07A13.11,13.11,0,0,0,15,93.57,17,17,0,0,0,18.65,92a22.34,22.34,0,0,0,3-2.17c.92-.79,1.86-1.56,2.84-2.31a5.33,5.33,0,0,0,.17,1.5,6.73,6.73,0,0,0,.91,2,12.41,12.41,0,0,0,1.19,1.6,6.4,6.4,0,0,0,.95.85,5.86,5.86,0,0,0,1.43.73l8.65,0ZM22.12,86.22a22.91,22.91,0,0,1-2.32,1.47,11.93,11.93,0,0,1-2.41,1,9.41,9.41,0,0,1-2.61.37,5.69,5.69,0,0,1-2.49-.62,7,7,0,0,1-2.12-1.66,9.36,9.36,0,0,1-1.48-2.45,8,8,0,0,1-.54-3,6.32,6.32,0,0,1,.74-2.85A8.8,8.8,0,0,1,12.4,75c4.82-3.11,6.6-3.54,9.26-5.8a20.74,20.74,0,0,0,2.85-3V84.46C23.7,85.09,22.9,85.68,22.12,86.22Z"/><path class="cls-2" d="M229.47,63A20.62,20.62,0,0,0,225,56.28a21.12,21.12,0,0,0-6.8-4.5,22.47,22.47,0,0,0-8.61-1.67,20.94,20.94,0,0,0-8.7,1.74A21.25,21.25,0,0,0,194,56.7a22.61,22.61,0,0,0-4.53,7.23,24.2,24.2,0,0,0-1.66,8.87,22,22,0,0,0,1.58,8.47,21,21,0,0,0,11.3,11.59A20,20,0,0,0,205,94.19a22.63,22.63,0,0,0,4.42.42,20.64,20.64,0,0,0,4.35-.42A18.56,18.56,0,0,0,218,92.8a21.23,21.23,0,0,0,6.85-5,23.4,23.4,0,0,0,4.55-7.46A26,26,0,0,0,231,71.19,21.22,21.22,0,0,0,229.47,63Zm-8.4,18.71a18.3,18.3,0,0,1-2.26,5.06,11.59,11.59,0,0,1-3.47,3.47,7.79,7.79,0,0,1-4.41,1.28,10.33,10.33,0,0,1-6-1.81,15.25,15.25,0,0,1-4.44-4.83,24.94,24.94,0,0,1-2.72-7.16,39.06,39.06,0,0,1-.9-8.78,20.46,20.46,0,0,1,.91-6.08,18.52,18.52,0,0,1,2.36-5,11.92,11.92,0,0,1,3.4-3.36,7.33,7.33,0,0,1,4-1.21A12.54,12.54,0,0,1,214.27,55a13.39,13.39,0,0,1,4.46,4.77,22.62,22.62,0,0,1,2.44,7.08,46.81,46.81,0,0,1,.72,8.69A22.87,22.87,0,0,1,221.07,81.68Z"/><path class="cls-2" d="M115.5,41.66a5,5,0,0,1-.37,1.88,4.59,4.59,0,0,1-4.31,2.91,4.36,4.36,0,0,1-1.79-.38,4.77,4.77,0,0,1-1.49-1,4.7,4.7,0,0,1-1.34-3.41,4.82,4.82,0,0,1,.36-1.86,4.74,4.74,0,0,1,1-1.53,4.82,4.82,0,0,1,1.5-1,4.52,4.52,0,0,1,1.8-.36,4.42,4.42,0,0,1,1.81.38,4.62,4.62,0,0,1,1.47,1,4.5,4.5,0,0,1,1,1.55A4.81,4.81,0,0,1,115.5,41.66Z"/><path class="cls-2" d="M110.69,60.65l-.17-.17h0C110.58,60.53,110.65,60.59,110.69,60.65Z"/><polygon class="cls-2" points="322.64 50.17 322.45 94.19 314.7 94.19 314.88 52.52 320.47 50.16 322.64 50.17"/><path class="cls-2" d="M322.07,38.37a4.43,4.43,0,0,0-1.47-1.06,4.58,4.58,0,0,0-1.81-.37,4.39,4.39,0,0,0-1.8.36,4.66,4.66,0,0,0-1.49,1,4.55,4.55,0,0,0-1,1.54,5,5,0,0,0-.36,1.86,5.24,5.24,0,0,0,.35,1.89,4.66,4.66,0,0,0,1,1.53A4.8,4.8,0,0,0,317,46.22a4.53,4.53,0,0,0,1.8.37,4.4,4.4,0,0,0,1.81-.36,5,5,0,0,0,2.5-2.56,4.8,4.8,0,0,0,.36-1.88,4.68,4.68,0,0,0-.35-1.87A4.41,4.41,0,0,0,322.07,38.37Z"/><polygon class="cls-2" points="308.78 94.19 308.78 94.26 300.95 94.23 300.8 94.23 300.8 94.19 308.78 94.19"/><polygon class="cls-2" points="328.26 86.14 328.25 89.49 328.25 86.14 328.26 86.14"/><polygon class="cls-2" points="149.34 91.44 149.33 94.04 149.33 91.44 149.34 91.44"/><path class="cls-2" d="M363.69,86v8.16h-8.17q0-4.08,0-8.16l.09-21.16a9.72,9.72,0,0,0-.6-3.44c-.12-.34-.26-.67-.4-1a9.07,9.07,0,0,0-1.2-1.89,7.59,7.59,0,0,0-2.35-2,6.11,6.11,0,0,0-2.84-.72,10.7,10.7,0,0,0-3.24.48,17.58,17.58,0,0,0-3.25,1.35,15.78,15.78,0,0,0-3,2A11.79,11.79,0,0,0,336.58,62V94.19h-8.17V52.51l5.85-2.41h2.35l0,6.42a29.81,29.81,0,0,1,3.24-2.61,31.38,31.38,0,0,1,3.83-2.28,21.23,21.23,0,0,1,7.58-1.53l1.1,0a10.62,10.62,0,0,1,2.36.3c.43.1.87.24,1.31.39a12.21,12.21,0,0,1,3.45,1.92,12.54,12.54,0,0,1,2.71,2.91,9.82,9.82,0,0,1,1.07,2.09,8.62,8.62,0,0,1,.42,1.55Q363.67,72.66,363.69,86Z"/><path class="cls-2" d="M355.56,86q0,4.08,0,8.16V86Z"/><polygon class="cls-2" points="308.78 94.19 308.78 94.26 300.95 94.23 300.95 94.19 308.78 94.19"/><polygon class="cls-2" points="175.56 66.72 175.54 71.73 175.54 66.72 175.56 66.72"/><path class="cls-2" d="M183.71,63.85V94.19h-8.17l0-29.19a10.16,10.16,0,0,0-.56-3.43,9.27,9.27,0,0,0-1.58-2.85,7.76,7.76,0,0,0-2.34-1.94,6,6,0,0,0-2.81-.72,12.62,12.62,0,0,0-3.45.47,16.62,16.62,0,0,0-3.31,1.3,13.35,13.35,0,0,0-2.86,2,13.16,13.16,0,0,0-2.16,2.5q0,16,0,31.91h-8.15c.1-16.21.14-28,.13-29.31a12.23,12.23,0,0,0-.33-2.59c-.07-.28-.16-.56-.26-.84s-.26-.66-.41-1a9.55,9.55,0,0,0-1.2-1.88,7.64,7.64,0,0,0-2.34-1.94,6.15,6.15,0,0,0-2.85-.72,10.61,10.61,0,0,0-3.23.49,17.58,17.58,0,0,0-3.26,1.33,17.16,17.16,0,0,0-3,1.94,12.64,12.64,0,0,0-2.23,2.3V94.19h-8.17V52.49l5.88-2.38h2.32l0,6.45A31.37,31.37,0,0,1,132.64,54a22.27,22.27,0,0,1,3.83-2.28,21.23,21.23,0,0,1,7.68-1.51h1a11.27,11.27,0,0,1,2.36.3,10.91,10.91,0,0,1,1.31.4,12.26,12.26,0,0,1,3.45,1.9,12.48,12.48,0,0,1,2.71,2.9A9,9,0,0,1,156,57.78a8.88,8.88,0,0,1,.42,1.53c.06-.09.1-.18.16-.27a13.87,13.87,0,0,1,2.64-3.25,21,21,0,0,1,4-2.87A22.54,22.54,0,0,1,167.83,51a17.72,17.72,0,0,1,4.75-.69,9.17,9.17,0,0,1,4.35,1.09,11.93,11.93,0,0,1,3.54,2.93,14,14,0,0,1,2.39,4.29A15.55,15.55,0,0,1,183.71,63.85Z"/><polygon class="cls-2" points="115.1 50.13 115.01 71 115.01 94.19 106.84 94.19 106.84 52.46 112.79 50.12 115.1 50.13"/><path class="cls-2" d="M73,29.59,67.17,32q0,11-.1,22.07L67,53.94a13.91,13.91,0,0,0-4.05-2.78,13.16,13.16,0,0,0-3.46-1,12.53,12.53,0,0,0-1.77-.12,18.94,18.94,0,0,0-8.36,1.86A23,23,0,0,0,42.48,57a24.64,24.64,0,0,0-4.67,7.24,21.47,21.47,0,0,0-1.75,8.4,25.05,25.05,0,0,0,1.33,8.29,22.92,22.92,0,0,0,3.68,6.89,18.32,18.32,0,0,0,5.48,4.74,13.56,13.56,0,0,0,5.07,1.65,13.29,13.29,0,0,0,1.68.11,14.78,14.78,0,0,0,2-.11c.52,0,1-.12,1.55-.21a26.4,26.4,0,0,0,3.6-1,23.16,23.16,0,0,0,3.43-1.56s1.08-.61,1.9-1.21a6.07,6.07,0,0,0,1.13-1.09l0,0,0,5.1H75l.06-12.92V29.6Zm-6.1,55.88a12.48,12.48,0,0,1-1.75,1.62A15.23,15.23,0,0,1,63,88.46a13.23,13.23,0,0,1-2.46,1,10.16,10.16,0,0,1-2.6.35,9.12,9.12,0,0,1-5-1.56,14.19,14.19,0,0,1-4.07-4.16,22.08,22.08,0,0,1-2.71-6.2,27.28,27.28,0,0,1-1-7.6,24.16,24.16,0,0,1,1-6.92,18.16,18.16,0,0,1,2.52-5.41,11.78,11.78,0,0,1,3.74-3.49,9.26,9.26,0,0,1,2.17-.92,9,9,0,0,1,3.63-.21,9.14,9.14,0,0,1,2.44.73,9.24,9.24,0,0,1,1.23.65,10.49,10.49,0,0,1,2,1.66,15.57,15.57,0,0,1,2.34,3.54,11.24,11.24,0,0,1,.74,2.51Z"/><path class="cls-2" d="M66.92,89.09l0,5.1V89.13Z"/><path class="cls-2" d="M75.06,29.59h0Z"/><path class="cls-2" d="M75.06,81.27V94.19H75Z"/></g></g></svg>